<?xml version="1.0" encoding="UTF-8"?>
<svg id="Ebene_1" xmlns="http://www.w3.org/2000/svg" version="1.1" viewBox="0 0 841.9 595.3">
  <!-- Generator: Adobe Illustrator 30.2.1, SVG Export Plug-In . SVG Version: 2.1.1 Build 1)  -->
  <defs>
    <style>
      .st0 {
        fill: none;
      }

      .st1 {
        fill: #fff;
      }
    </style>
  </defs>
  <polygon class="st0" points="458.4 354.3 450.3 370.6 466.4 370.6 458.4 354.3"/>
  <path class="st0" d="M266.5,316.5c65.1,0,65.1-105.4,0-105.4s-65.1,105.4,0,105.4Z"/>
  <path class="st0" d="M482.3,352.7c-.7,0-1.5,0-2.4,0v15.9c.8,0,1.7,0,2.4,0,10.6,0,15.9-4,15.9-8s-5.3-8-15.9-8Z"/>
  <path class="st0" d="M383.4,378.1c.5,0,1,0,1.7,0v-13.1h-3c-6.8,0-11.4,3-11.4,6.6s5.5,6.5,12.7,6.5Z"/>
  <path class="st0" d="M733.1,240c-9.7,21.8-16.4,38.9-20.8,52.1h59.4l-30.8-69.4-7.7,17.2Z"/>
  <path class="st0" d="M209.9,352.7c-.7,0-2.1,0-2.9,0v25.4c.9,0,2.2,0,2.9,0,10.6,0,15.9-6.3,15.9-12.7s-5.3-12.8-15.9-12.8Z"/>
  <path class="st0" d="M514,316.5c65.1,0,65.1-105.4,0-105.4s-65.1,105.4,0,105.4Z"/>
  <path class="st1" d="M74.3,317.2h8.2c-3-13.6-6.6-27.7-6.6-81.5v-12.1l44.9,70.2h6.7l49.5-77.6v101h8.2v-106.6h-6.6l-50.7,79.4-50.7-79.4h-9.8l6.7,10.3v96.3Z"/>
  <path class="st1" d="M266.5,318.2c77.2,0,77.2-108.6.1-108.7h-.3c-77.1.1-77.1,108.7.1,108.7ZM266.5,316.5c-65.1,0-65.1-105.4,0-105.4s65.1,105.4,0,105.4Z"/>
  <polygon class="st1" points="424.8 317.2 433 317.2 433 210.6 424.8 210.6 424.8 240 355.9 240 355.9 210.6 347.7 210.6 347.7 317.2 355.9 317.2 355.9 241.6 424.8 241.6 424.8 317.2"/>
  <path class="st1" d="M514,318.2c77.2,0,77.2-108.6.1-108.7h-.3c-77.1.1-77.1,108.7.1,108.7ZM514,316.5c-65.1,0-65.1-105.4,0-105.4s65.1,105.4,0,105.4Z"/>
  <path class="st1" d="M597.3,210.6h-10.5l8.2,10.5v96.1h8.2c-3-13.6-6.6-27.7-6.6-81.5v-12.5l73.1,94h7.4v-106.6h-8.2c3,13.6,6.6,27.7,6.6,81.5v19.2l-78.2-100.7Z"/>
  <path class="st1" d="M735.3,210.6l4.4,10.2-43,96.4h9c.8-5.7,2.6-13.4,5.9-23.4h60.7l10.5,23.4h9l-47.6-106.6h-9ZM712.2,292.1c4.4-13.3,11.2-30.3,20.8-52.1l7.7-17.2,30.8,69.4h-59.4Z"/>
  <path class="st1" d="M209.9,351.5c-1.1,0-3.1,0-4.5.2v27.6c1.3,0,3.4.1,4.5.1,11.7,0,17.5-6.9,17.5-13.9s-5.8-13.9-17.5-13.9ZM209.9,378.2c-.7,0-2.1,0-2.9,0v-25.4c.8,0,2.2,0,2.9,0,10.6,0,15.9,6.4,15.9,12.8s-5.3,12.7-15.9,12.7Z"/>
  <polygon class="st1" points="254.3 352.8 254.3 351.7 233.8 351.7 233.8 379.2 254.3 379.2 254.3 378.1 235.4 378.1 235.4 364.4 250.9 364.4 250.9 363.2 235.4 363.2 235.4 352.8 254.3 352.8"/>
  <path class="st1" d="M270.2,378.5c-3.7,0-7-1.3-8.6-3.9l-1.4.5c1.8,3.2,5.6,4.6,10,4.6s10.7-3.1,10.7-7.6-5.6-6-10.2-7.2c-4.1-1.1-9.2-2.8-9.2-6.1s4-6.4,9.2-6.4,7,1.3,8.6,3.9l1.4-.5c-1.8-3.2-5.7-4.6-10-4.6s-10.7,3.1-10.7,7.6,5.6,6,10.2,7.2c4.1,1.1,9.2,2.8,9.2,6.1s-4,6.4-9.2,6.4Z"/>
  <rect class="st1" x="287.3" y="351.7" width="1.5" height="27.6"/>
  <path class="st1" d="M312.8,352.7c.7,0,2.7,0,4.5.2v-1.2c-1.3,0-3.4-.2-4.5-.2-11.7,0-17.5,6.9-17.5,13.9s5.8,13.9,17.5,13.9,3.1,0,4.5-.1v-12.1h-1.5v11c-.9,0-2.2,0-2.9,0-10.6,0-15.9-6.3-15.9-12.7s5.3-12.8,15.9-12.8Z"/>
  <polygon class="st1" points="324.3 350.5 324.3 379.2 325.9 379.2 325.9 354.9 345.9 380.4 345.9 351.7 344.3 351.7 344.3 376 324.3 350.5"/>
  <path class="st1" d="M369.1,371.6c0,4.8,6.2,7.7,14.3,7.7s2.1,0,3.2-.1v-14.2h2.5v-1.2h-2.5v-1.9h-1.5v1.9h-3c-5.4,0-8.7-2.4-8.7-5.5s3.9-5.6,8.8-5.6,1.1,0,1.7,0v-1.2c-.5,0-1.1,0-1.7,0-5.7,0-10.3,2.6-10.3,6.8s2,5,5.4,6c-5,1.1-8.2,4-8.2,7.3ZM382,365h3v13.1c-.6,0-1.1,0-1.7,0-7.2,0-12.7-2.5-12.7-6.5s4.6-6.6,11.4-6.6Z"/>
  <polygon class="st1" points="438.4 379.2 438.4 350.7 425.1 369.7 411.8 350.7 411.8 379.2 413.3 379.2 413.3 355.4 425.1 372.3 436.8 355.4 436.8 379.2 438.4 379.2"/>
  <path class="st1" d="M467,371.8l3.8,7.6,1.4-.4-13.8-28.1-13.8,28.1,1.4.4,3.8-7.6h17.2ZM458.4,354.3l8,16.3h-16l8-16.3Z"/>
  <path class="st1" d="M499.8,360.8c0-4.6-5.8-9.2-17.5-9.2s-2.6,0-4,.1v27.6h1.5v-9.4c.9,0,1.7,0,2.4,0,2.5,0,4.9-.2,6.8-.6l10.2,10.2,1.2-.7-9.9-9.9c6-1.6,9.1-4.9,9.1-8.2ZM482.3,368.8c-.7,0-1.6,0-2.4,0v-15.9c.9,0,1.7,0,2.4,0,10.6,0,15.9,4,15.9,8s-5.3,8-15.9,8Z"/>
  <polygon class="st1" points="506.5 351.7 506.5 379.2 508.1 379.2 508.1 367.7 511 365.6 528.9 379.6 530 378.8 512.1 364.8 530 352.1 529 351.2 508.1 366.1 508.1 351.7 506.5 351.7"/>
  <polygon class="st1" points="556.7 352.8 556.7 351.7 536.2 351.7 536.2 379.2 556.7 379.2 556.7 378.1 537.8 378.1 537.8 364.4 553.3 364.4 553.3 363.2 537.8 363.2 537.8 352.8 556.7 352.8"/>
  <polygon class="st1" points="574.9 379.2 574.9 352.8 586.1 352.8 586.1 351.7 562.1 351.7 562.1 352.8 573.3 352.8 573.3 379.2 574.9 379.2"/>
  <rect class="st1" x="592.3" y="351.7" width="1.5" height="27.6"/>
  <polygon class="st1" points="601.1 350.5 601.1 379.2 602.7 379.2 602.7 354.9 622.6 380.4 622.6 351.7 621.1 351.7 621.1 376 601.1 350.5"/>
  <path class="st1" d="M646.6,352.7c.7,0,2.7,0,4.5.2v-1.2c-1.3,0-3.4-.2-4.5-.2-11.7,0-17.5,6.9-17.5,13.9s5.8,13.9,17.5,13.9,3.1,0,4.5-.1v-12.1h-1.5v11c-.9,0-2.2,0-2.9,0-10.6,0-15.9-6.3-15.9-12.7s5.3-12.8,15.9-12.8Z"/>
</svg>